# xmcd
#
# Track frame offsets: 
#        150
#        13210
#        33326
#        49425
#        61557
#        76935
#        85261
#        103173
#        119194
#        135277
#        153916
#        175314
#        190862
#
# Disc length: 2864 seconds
#
# Revision: 0
# Processed by: cddbd v1.5.2PL0 Copyright (c) Steve Scherf et al.
# Submitted via: ExactAudioCopy v0.99pb5
#
DISCID=a70b2e0d
DTITLE=Himuki - My Book
DYEAR=2007
DGENRE=Hip-Hop
TTITLE0=Levitation feat. Acchin
TTITLE1=Hold On feat. Sene
TTITLE2=Innervision feat. Kero One
TTITLE3=KH Anthem feat. Kenzo and Tsu
TTITLE4=Lyrical Soldier Remix feat. Val
TTITLE5=Good Days
TTITLE6=Get Down feat. Pismo
TTITLE7=Alright feat. Raashan Ahmad
TTITLE8=Tropical Forests
TTITLE9=Hold On Remix feat. Sene
TTITLE10=Keep On feat. Rasco
TTITLE11=Alright (DJ Tonk Remix) feat. Rashaan Ahmad
TTITLE12=Good Night
EXTD=
EXTT0=
EXTT1=
EXTT2=
EXTT3=
EXTT4=
EXTT5=
EXTT6=
EXTT7=
EXTT8=
EXTT9=
EXTT10=
EXTT11=
EXTT12=
PLAYORDER=
